<svg width="250" height="250" viewBox="0 0 250 250" fill="none" xmlns="http://www.w3.org/2000/svg">
<g clip-path="url(#clip0_28_2)">
<path d="M242 0H8C3.58172 0 0 3.58172 0 8V242C0 246.418 3.58172 250 8 250H242C246.418 250 250 246.418 250 242V8C250 3.58172 246.418 0 242 0Z" fill="white"/>
<path d="M114.453 197.913V105.486H146.797V227H116.362L114.453 197.913ZM118.047 172.981L127.593 172.757C127.593 180.843 126.657 188.367 124.785 195.33C122.913 202.218 120.106 208.208 116.362 213.299C112.619 218.315 107.902 222.246 102.212 225.091C96.5217 227.861 89.8207 229.246 82.1087 229.246C76.1937 229.246 70.7287 228.423 65.7127 226.775C60.7717 225.053 56.5037 222.396 52.9097 218.802C49.3907 215.133 46.6207 210.454 44.5987 204.764C42.6517 198.999 41.6787 192.073 41.6787 183.987V105.486H74.0227V184.212C74.0227 187.806 74.4347 190.838 75.2577 193.309C76.1557 195.779 77.3917 197.801 78.9637 199.373C80.5357 200.945 82.3707 202.068 84.4667 202.742C86.6377 203.416 89.0337 203.753 91.6547 203.753C98.3177 203.753 103.56 202.405 107.378 199.71C111.271 197.015 114.004 193.346 115.576 188.704C117.223 183.987 118.047 178.746 118.047 172.981ZM205.645 105.486V227H173.188V105.486H205.645ZM171.167 73.816C171.167 69.099 172.814 65.206 176.108 62.136C179.402 59.066 183.82 57.532 189.36 57.532C194.826 57.532 199.206 59.067 202.5 62.136C205.869 65.206 207.554 69.099 207.554 73.816C207.554 78.533 205.869 82.426 202.5 85.496C199.206 88.566 194.826 90.101 189.36 90.101C183.82 90.101 179.403 88.566 176.108 85.496C172.813 82.426 171.167 78.533 171.167 73.816Z" fill="black"/>
</g>
<defs>
<clipPath id="clip0_28_2">
<rect width="250" height="250" fill="white"/>
</clipPath>
</defs>
</svg>
