<svg xmlns="http://www.w3.org/2000/svg" width="250" height="250" fill="none" xmlns:v="https://vecta.io/nano"><rect width="250" height="250" rx="8" fill="#000"/><path d="M114.453 197.913v-92.427h32.344V227h-30.435l-1.909-29.087zm3.594-24.932l9.546-.224c0 8.086-.936 15.61-2.808 22.573-1.872 6.888-4.679 12.878-8.423 17.969-3.743 5.016-8.46 8.947-14.15 11.792-5.69 2.77-12.391 4.155-20.103 4.155-5.915 0-11.38-.823-16.396-2.471-4.941-1.722-9.209-4.379-12.803-7.973-3.519-3.669-6.289-8.348-8.311-14.038-1.947-5.765-2.92-12.691-2.92-20.777v-78.501h32.344v78.726c0 3.594.412 6.626 1.235 9.097.898 2.47 2.134 4.492 3.706 6.064s3.407 2.695 5.503 3.369c2.171.674 4.567 1.011 7.188 1.011 6.663 0 11.905-1.348 15.723-4.043 3.893-2.695 6.626-6.364 8.198-11.006 1.647-4.717 2.471-9.958 2.471-15.723zm87.598-67.495V227h-32.457V105.486h32.457zm-34.478-31.67c0-4.717 1.647-8.61 4.941-11.68s7.712-4.604 13.252-4.604c5.466 0 9.846 1.535 13.14 4.604 3.369 3.07 5.054 6.963 5.054 11.68s-1.685 8.61-5.054 11.68c-3.294 3.07-7.674 4.605-13.14 4.605-5.54 0-9.957-1.535-13.252-4.605s-4.941-6.963-4.941-11.68z" fill="#fff"/></svg>